<?xml version="1.0" standalone="no"?>
<!DOCTYPE svg PUBLIC "-//W3C//DTD SVG 20010904//EN"
 "http://www.w3.org/TR/2001/REC-SVG-20010904/DTD/svg10.dtd">
<svg version="1.0" xmlns="http://www.w3.org/2000/svg"
 width="500.000000pt" height="500.000000pt" viewBox="0 0 500.000000 500.000000"
 preserveAspectRatio="xMidYMid meet" background-color="#444444" color="white">

<g transform="translate(0.000000,500.000000) scale(0.100000,-0.100000)"
fill="#000000" stroke="none">
<path d="M0 2500 l0 -2500 2500 0 2500 0 0 2500 0 2500 -2500 0 -2500 0 0
-2500z m1535 750 c-60 -4 -130 -13 -155 -20 -213 -58 -370 -261 -370 -480 0
-296 281 -539 568 -490 82 13 192 63 245 110 l37 32 0 238 0 238 -41 36 c-78
66 -121 81 -239 81 -96 0 -110 -2 -158 -28 -102 -53 -181 -160 -197 -264 l-6
-41 39 19 c37 19 43 19 76 5 49 -20 74 -72 57 -115 -30 -71 -107 -90 -158 -38
-26 26 -28 33 -27 110 1 152 76 272 212 339 62 31 74 33 167 33 91 0 105 -3
155 -29 30 -16 69 -40 85 -54 l30 -25 3 177 2 176 85 0 c111 0 176 -24 252
-93 133 -121 236 -348 288 -631 12 -64 13 -31 14 327 l1 397 55 0 55 0 0 -520
0 -520 -53 0 -54 0 -6 108 c-15 248 -86 513 -184 682 -56 95 -156 192 -227
219 -31 11 -70 21 -86 21 l-30 0 0 -515 0 -515 -55 0 -55 0 0 81 0 81 -35 -31
c-80 -70 -199 -111 -320 -111 -226 0 -419 142 -491 360 -12 37 -18 86 -18 150
0 105 17 170 65 257 60 105 189 206 308 239 26 7 97 12 161 12 l115 -1 -110
-7z m1445 -370 c102 -238 167 -375 172 -368 4 7 8 29 8 49 0 127 78 410 141
515 64 106 174 184 261 184 l28 0 0 -520 0 -520 -60 0 -60 0 0 500 c0 275 -3
500 -7 500 -28 0 -111 -81 -154 -150 -85 -136 -149 -454 -149 -733 0 -81 -3
-118 -11 -115 -6 2 -108 228 -227 503 l-217 498 -5 -504 -5 -504 -3 523 -2
522 63 0 63 0 164 -380z m-1833 -1102 c-2 -18 -4 -6 -4 27 0 33 2 48 4 33 2
-15 2 -42 0 -60z m70 0 c-2 -18 -4 -6 -4 27 0 33 2 48 4 33 2 -15 2 -42 0 -60z
m163 27 c0 -30 -4 -55 -10 -55 -5 0 -10 25 -10 55 0 30 5 55 10 55 6 0 10 -25
10 -55z m147 -27 c-2 -18 -4 -6 -4 27 0 33 2 48 4 33 2 -15 2 -42 0 -60z m243
27 c0 -30 -4 -55 -10 -55 -5 0 -10 25 -10 55 0 30 5 55 10 55 6 0 10 -25 10
-55z m57 -27 c-2 -18 -4 -6 -4 27 0 33 2 48 4 33 2 -15 2 -42 0 -60z m150 0
c-2 -18 -4 -6 -4 27 0 33 2 48 4 33 2 -15 2 -42 0 -60z m163 27 c0 -30 -4 -55
-10 -55 -5 0 -10 25 -10 55 0 30 5 55 10 55 6 0 10 -25 10 -55z m401 9 c11
-26 18 -49 15 -51 -4 -4 -46 82 -46 93 0 16 14 -4 31 -42z m56 -36 c-2 -18 -4
-6 -4 27 0 33 2 48 4 33 2 -15 2 -42 0 -60z m163 27 c0 -30 -4 -55 -10 -55 -5
0 -10 25 -10 55 0 30 5 55 10 55 6 0 10 -25 10 -55z m210 0 c0 -30 -4 -55 -10
-55 -5 0 -10 25 -10 55 0 30 5 55 10 55 6 0 10 -25 10 -55z m57 -27 c-2 -18
-4 -6 -4 27 0 33 2 48 4 33 2 -15 2 -42 0 -60z m224 -5 c5 -13 5 -23 1 -23 -9
0 -42 80 -42 100 1 14 17 -18 41 -77z m156 5 c-2 -18 -4 -6 -4 27 0 33 2 48 4
33 2 -15 2 -42 0 -60z m61 51 c-3 -8 -7 -3 -11 10 -4 17 -3 21 5 13 5 -5 8
-16 6 -23z m258 -77 c-6 -6 -46 84 -45 101 0 7 12 -12 25 -42 14 -29 22 -56
20 -59z m-2126 4 c0 -6 -7 -2 -15 8 -8 11 -15 25 -15 30 0 6 7 2 15 -8 8 -11
15 -25 15 -30z m1880 14 c12 -23 12 -24 -3 -11 -10 7 -17 20 -17 29 0 18 3 16
20 -18z"/>
</g>
</svg>
